<svg width="25" height="24" viewBox="0 0 25 24" fill="none" xmlns="http://www.w3.org/2000/svg">
<g id="Group">
<path id="Vector" d="M19.6597 21L14.5137 15.866V15.053L14.2357 14.765C12.9208 15.8934 11.2198 16.4686 9.48983 16.3697C7.75988 16.2707 6.13553 15.5054 4.9578 14.2344C3.78008 12.9634 3.14059 11.2855 3.17358 9.55302C3.20657 7.82055 3.90949 6.16824 5.13475 4.94298C6.36001 3.71771 8.01232 3.0148 9.74479 2.98181C11.4773 2.94881 13.1551 3.58831 14.4262 4.76603C15.6972 5.94375 16.4625 7.56811 16.5614 9.29806C16.6604 11.028 16.0852 12.729 14.9567 14.044L15.2447 14.322H16.0577L21.1927 19.467L19.6607 21H19.6597ZM9.88174 5.05797C8.96582 5.05797 8.07046 5.32958 7.3089 5.83844C6.54733 6.3473 5.95377 7.07056 5.60326 7.91676C5.25275 8.76297 5.16104 9.69411 5.33973 10.5924C5.51842 11.4908 5.95948 12.3159 6.60713 12.9636C7.25479 13.6112 8.07996 14.0523 8.97828 14.231C9.87661 14.4097 10.8077 14.318 11.654 13.9675C12.5002 13.6169 13.2234 13.0234 13.7323 12.2618C14.2411 11.5003 14.5127 10.6049 14.5127 9.68897C14.5112 8.46124 14.0227 7.28425 13.1546 6.41611C12.2865 5.54798 11.1095 5.05956 9.88174 5.05797Z" fill="#C1C1C1"/>
</g>
</svg>
