<svg width="58" height="24" viewBox="0 0 58 24" fill="none" xmlns="http://www.w3.org/2000/svg">
<g id="Capa_1" clip-path="url(#clip0_4381_42498)">
<path id="Vector" fill-rule="evenodd" clip-rule="evenodd" d="M3.95076 0.549764H30.6692C31.4417 0.531467 32.2801 0.494039 33.02 0.717771C35.9647 1.21514 38.8619 2.53174 40.6763 4.72664C42.3814 6.78847 42.6416 10.2176 42.9002 13.0272C43.0445 14.595 45.2752 16.2725 47.3991 16.2725C49.5229 16.2725 50.8993 14.4893 50.8993 13.2409V3.93901C50.8993 1.77239 52.677 0 54.8501 0C57.0232 0 58.8008 1.77239 58.8008 3.93901V14.565C58.8008 21.3684 51.7302 23.9651 47.3991 23.9651C44.3367 23.9651 41.533 22.6659 39.3958 20.6889C37.6973 22.4971 35.5685 23.7588 33.3512 23.7588H27.8388C25.6657 23.7588 23.8881 21.9864 23.8881 19.8198C23.8881 17.6532 25.6657 15.8883 27.8388 15.8808L31.8104 15.8666C34.5015 15.8575 35.2957 14.0152 35.2807 11.8819C35.2665 9.83671 33.9134 8.42695 31.8813 8.42695H19.1106V20.0602C19.1106 22.2268 17.3329 23.9992 15.1599 23.9992C12.9868 23.9992 11.2091 22.2268 11.2091 20.0602V8.42778H3.95076C1.77767 8.42778 0 6.65456 0 4.48877C0 2.32215 1.77767 0.549764 3.95076 0.549764Z" fill="white"/>
</g>
<defs>
<clipPath id="clip0_4381_42498">
<rect width="58" height="24" fill="white"/>
</clipPath>
</defs>
</svg>
