<svg width="38" height="16" viewBox="0 0 38 16" fill="none" xmlns="http://www.w3.org/2000/svg">
<g id="Capa_1" clip-path="url(#clip0_4466_55857)">
<path id="Vector" fill-rule="evenodd" clip-rule="evenodd" d="M2.55317 0.366522H19.82C20.3192 0.354323 20.861 0.329371 21.3391 0.478531C23.2422 0.81012 25.1145 1.68789 26.287 3.1512C27.3889 4.5258 27.5571 6.81199 27.7242 8.68508C27.8175 9.73031 29.2591 10.8487 30.6316 10.8487C32.0041 10.8487 32.8937 9.65989 32.8937 8.82759V2.6261C32.8937 1.18163 34.0425 0 35.4468 0C36.8512 0 38 1.18163 38 2.6261V9.71035C38 14.2461 33.4306 15.9773 30.6316 15.9773C28.6526 15.9773 26.8407 15.1111 25.4595 13.7931C24.3619 14.9986 22.9861 15.8398 21.5532 15.8398H17.9908C16.5865 15.8398 15.4376 14.6581 15.4376 13.2137C15.4376 11.7692 16.5865 10.5925 17.9908 10.5876L20.5575 10.5781C22.2966 10.572 22.8098 9.34382 22.8001 7.92154C22.7909 6.55803 21.9165 5.61816 20.6033 5.61816H12.3502V13.3739C12.3502 14.8184 11.2014 16 9.79704 16C8.39269 16 7.24387 14.8184 7.24387 13.3739V5.61871H2.55317C1.14882 5.61871 0 4.43653 0 2.99262C0 1.54815 1.14882 0.366522 2.55317 0.366522Z" fill="white"/>
</g>
<defs>
<clipPath id="clip0_4466_55857">
<rect width="38" height="16" fill="white"/>
</clipPath>
</defs>
</svg>
