<svg width="37" height="12" viewBox="0 0 37 12" fill="none" xmlns="http://www.w3.org/2000/svg">
<g id="Capa_1">
<path id="Vector" fill-rule="evenodd" clip-rule="evenodd" d="M5.91488 0.274892H18.865C19.2394 0.265743 19.6457 0.247028 20.0044 0.358898C21.4316 0.60759 22.8358 1.26592 23.7152 2.3634C24.5417 3.39435 24.6678 5.10899 24.7932 6.51381C24.8631 7.29773 25.9443 8.13655 26.9737 8.13655C28.0031 8.13655 28.6702 7.24491 28.6702 6.62069V1.96957C28.6702 0.886224 29.5319 0 30.5851 0C31.6384 0 32.5 0.886224 32.5 1.96957V7.28276C32.5 10.6846 29.0729 11.983 26.9737 11.983C25.4894 11.983 24.1305 11.3334 23.0946 10.3448C22.2714 11.2489 21.2396 11.8798 20.1649 11.8798H17.4931C16.4398 11.8798 15.5782 10.9936 15.5782 9.91024C15.5782 8.82689 16.4398 7.94441 17.4931 7.94067L19.4181 7.9336C20.7224 7.92903 21.1074 7.00787 21.1001 5.94115C21.0932 4.91852 20.4374 4.21362 19.4525 4.21362H13.2627V10.0304C13.2627 11.1138 12.401 12 11.3478 12C10.2945 12 9.4329 11.1138 9.4329 10.0304V4.21404H5.91488C4.86161 4.21404 4 3.3274 4 2.24446C4 1.16112 4.86161 0.274892 5.91488 0.274892Z" fill="#1FB9EC"/>
</g>
</svg>
