<svg width="75" height="32" viewBox="0 0 75 32" fill="none" xmlns="http://www.w3.org/2000/svg">
<g id="Group">
<path id="Vector" d="M12.0889 20.4432C11.4937 20.1003 11.0599 19.7506 10.7875 19.3934C10.1923 18.6623 9.83384 17.8126 9.71049 16.8444C9.58714 15.8762 9.72043 14.9298 10.1095 14.0045C10.9101 12.2757 12.2653 11.3503 14.176 11.2293C14.3995 11.2251 14.5883 11.2949 14.7431 11.4394C14.8971 11.584 14.9815 11.7689 14.9948 11.9941C14.9989 12.2202 14.9302 12.4101 14.787 12.5665C14.6437 12.7219 14.4608 12.8068 14.2364 12.8203C13.4135 12.8875 12.7935 13.1203 12.3779 13.5179C11.9615 13.9145 11.6891 14.2919 11.5591 14.6483C11.2909 15.2845 11.1965 15.94 11.2776 16.6149C11.3579 17.2898 11.5972 17.8731 11.9954 18.3647C12.8497 19.3624 14.1603 19.6397 15.9277 19.1976C16.1471 19.148 16.3475 19.1783 16.5279 19.2892C16.7092 19.4002 16.831 19.5632 16.8939 19.7801C16.9427 20.0011 16.9129 20.202 16.8036 20.3827C16.6944 20.5634 16.5321 20.6852 16.3169 20.7483C15.6281 20.9155 15.0063 20.9987 14.4517 20.9987C13.4715 20.971 12.6834 20.7861 12.0889 20.4432ZM15.7456 13.3346H15.7324C15.5262 13.2716 15.3722 13.1506 15.2696 12.9724C15.1669 12.7942 15.1396 12.5967 15.1893 12.3799C15.2522 12.1723 15.3714 12.0168 15.5486 11.9126C15.7249 11.8084 15.9211 11.784 16.1355 11.8378H16.1422C16.3524 11.9008 16.5089 12.0219 16.6116 12.2C16.7142 12.3782 16.7391 12.5732 16.6853 12.7858C16.6364 12.9615 16.5428 13.1018 16.4071 13.2052C16.2705 13.3094 16.1173 13.3607 15.9476 13.3607C15.8797 13.3624 15.8127 13.3531 15.7456 13.3346Z" fill="white"/>
<path id="Vector_2" d="M18.3567 19.6439C17.413 18.7051 16.9187 17.568 16.874 16.2316C16.874 15.9703 16.9576 15.7509 17.1257 15.5752C17.2938 15.3996 17.5073 15.3046 17.7665 15.2912H17.7863C18.0322 15.2912 18.2425 15.3769 18.4172 15.5484C18.5918 15.7198 18.6854 15.9341 18.6986 16.1913C18.7251 17.0217 19.0314 17.7276 19.6176 18.3101C20.2169 18.8791 20.9281 19.1589 21.751 19.1497C22.5697 19.1228 23.2676 18.8135 23.8446 18.2227C24.4084 17.6175 24.6858 16.9006 24.6766 16.0694C24.6361 15.2122 24.3289 14.5054 23.7536 13.9507C23.179 13.3951 22.4687 13.1161 21.6226 13.111C21.3635 13.1068 21.1466 13.0194 20.972 12.8505C20.7973 12.6816 20.7037 12.4656 20.6905 12.2042C20.6905 11.9428 20.7757 11.7235 20.9455 11.5478C21.1152 11.3722 21.3279 11.2772 21.5829 11.2637C22.9472 11.2679 24.0922 11.7193 25.0185 12.6177C25.9449 13.5161 26.4383 14.6533 26.5013 16.0299C26.5145 17.3662 26.0674 18.5235 25.1593 19.5027C24.2329 20.4549 23.1103 20.9533 21.7907 20.9987H21.6831C20.4371 20.9978 19.3278 20.5465 18.3567 19.6439Z" fill="white"/>
<path id="Vector_3" d="M28.6795 20.7641C28.5256 20.6086 28.4478 20.4204 28.4478 20.1985V12.1293C28.4478 11.9083 28.5247 11.72 28.6795 11.5637C28.8335 11.4082 29.0206 11.3301 29.24 11.3301C29.4544 11.3301 29.639 11.4082 29.7938 11.5637C29.9478 11.7192 30.0256 11.9083 30.0256 12.1293V20.1985C30.0256 20.4195 29.9487 20.6078 29.7938 20.7641C29.6399 20.9196 29.4553 20.9978 29.24 20.9978C29.0206 20.9978 28.8335 20.9204 28.6795 20.7641ZM30.8908 15.9954L30.8842 15.9887C30.7591 15.8038 30.7128 15.6063 30.7467 15.3962C30.7807 15.186 30.8866 15.0138 31.0655 14.8784C31.2484 14.7473 31.4446 14.7003 31.6524 14.7364C31.8602 14.7725 32.0316 14.881 32.1657 15.0617C32.2907 15.2466 32.337 15.4441 32.3031 15.6542C32.2692 15.8643 32.1657 16.0391 31.991 16.1786C31.8387 16.2778 31.6847 16.3274 31.5282 16.3274C31.2824 16.3274 31.0696 16.2164 30.8908 15.9954ZM33.9166 20.4901L31.9844 17.62C31.8635 17.43 31.8221 17.2317 31.8602 17.0241C31.8983 16.8165 32.0092 16.6476 32.1922 16.5165C32.3801 16.3946 32.5771 16.3526 32.7824 16.3913C32.9878 16.4299 33.1583 16.5417 33.2924 16.7266L33.7825 17.4511V11.9747C33.7825 11.7536 33.8595 11.5654 34.0143 11.4091C34.1683 11.2536 34.3529 11.1754 34.5682 11.1754C34.7875 11.1754 34.9738 11.2536 35.1286 11.4091C35.2826 11.5645 35.3604 11.7536 35.3604 11.9747V20.0439C35.3604 20.396 35.175 20.6507 34.8033 20.8087C34.7271 20.8314 34.6493 20.8423 34.5682 20.8423C34.3123 20.8423 34.0954 20.7246 33.9166 20.4901Z" fill="white"/>
<path id="Vector_4" d="M38.1714 12.8136C37.957 12.8136 37.7723 12.7354 37.6175 12.5799C37.4635 12.4244 37.3857 12.2362 37.3857 12.0143C37.3857 11.7974 37.4627 11.6117 37.6175 11.4554C37.7715 11.2999 37.9561 11.2217 38.1714 11.2217H43.3786C43.5931 11.2217 43.7777 11.2999 43.9325 11.4554C44.0865 11.6109 44.1643 11.7974 44.1643 12.0143C44.1643 12.2353 44.0873 12.4236 43.9325 12.5799C43.7785 12.7354 43.5939 12.8136 43.3786 12.8136H38.1714ZM38.1714 16.5779C37.957 16.5779 37.7723 16.4998 37.6175 16.3443C37.4635 16.1888 37.3857 16.0022 37.3857 15.7854C37.3857 15.5644 37.4627 15.3761 37.6175 15.2198C37.7715 15.0643 37.9561 14.9861 38.1714 14.9861C38.3908 14.9861 38.577 15.0643 38.7319 15.2198C38.8858 15.3752 38.9636 15.5635 38.9636 15.7854C38.9636 16.0022 38.8875 16.188 38.736 16.3443C38.5836 16.4998 38.4007 16.5779 38.1855 16.5779H38.1714ZM38.1714 20.9979C37.957 20.9979 37.7723 20.9197 37.6175 20.7642C37.4635 20.6087 37.3857 20.4222 37.3857 20.2053C37.3857 19.9843 37.4627 19.796 37.6175 19.6397C37.7715 19.4842 37.9561 19.406 38.1714 19.406H43.3786C43.5931 19.406 43.7777 19.4842 43.9325 19.6397C44.0865 19.7952 44.1643 19.9843 44.1643 20.2053C44.1643 20.4222 44.0873 20.6079 43.9325 20.7642C43.7785 20.9197 43.5939 20.9979 43.3786 20.9979H38.1714ZM40.1914 16.5779C39.9769 16.5779 39.7923 16.4998 39.6375 16.3443C39.4835 16.1888 39.4057 16.0022 39.4057 15.7854C39.4057 15.5644 39.4827 15.3761 39.6375 15.2198C39.7915 15.0643 39.9761 14.9861 40.1914 14.9861H42.5731C42.7925 14.9861 42.9788 15.0643 43.1336 15.2198C43.2876 15.3752 43.3654 15.5635 43.3654 15.7854C43.3654 16.0022 43.2884 16.188 43.1336 16.3443C42.9796 16.4998 42.7925 16.5779 42.5731 16.5779H40.1914Z" fill="white"/>
<path id="Vector_5" d="M47.3096 20.4432C46.7144 20.1003 46.2806 19.7506 46.0082 19.3934C45.413 18.6623 45.0545 17.8126 44.9312 16.8444C44.8078 15.8762 44.9411 14.9298 45.3302 14.0045C46.1308 12.2757 47.486 11.3503 49.3967 11.2293C49.6202 11.2251 49.809 11.2949 49.9638 11.4394C50.1178 11.584 50.2022 11.7689 50.2155 11.9941C50.2196 12.2202 50.1509 12.4101 50.0077 12.5665C49.8644 12.7219 49.6815 12.8068 49.4571 12.8203C48.6342 12.8875 48.0142 13.1203 47.5986 13.5179C47.1822 13.9145 46.9098 14.2919 46.7798 14.6483C46.5116 15.2845 46.4172 15.94 46.4983 16.6149C46.5786 17.2898 46.8179 17.8731 47.2161 18.3647C48.0705 19.3624 49.381 19.6397 51.1485 19.1976C51.3678 19.148 51.5682 19.1783 51.7487 19.2892C51.93 19.4002 52.0517 19.5632 52.1146 19.7801C52.1634 20.0011 52.1336 20.202 52.0243 20.3827C51.9151 20.5634 51.7528 20.6852 51.5376 20.7483C50.8488 20.9155 50.227 20.9987 49.6724 20.9987C48.6922 20.971 47.9049 20.7861 47.3096 20.4432ZM50.9671 13.3346H50.9539C50.7478 13.2716 50.5938 13.1506 50.4911 12.9724C50.3885 12.7942 50.3612 12.5967 50.4108 12.3799C50.4729 12.1723 50.593 12.0168 50.7701 11.9126C50.9465 11.8084 51.1427 11.784 51.3571 11.8378H51.3637C51.574 11.9008 51.7305 12.0219 51.8331 12.2C51.9358 12.3782 51.9606 12.5732 51.9068 12.7858C51.8579 12.9615 51.7644 13.1018 51.6286 13.2052C51.492 13.3094 51.3389 13.3607 51.1692 13.3607C51.1013 13.3624 51.0342 13.3531 50.9671 13.3346Z" fill="white"/>
<path id="Vector_6" d="M53.436 12.8135C53.2348 12.7185 53.0974 12.5723 53.0237 12.3731C52.9501 12.1747 52.9575 11.9713 53.0469 11.7638C53.1405 11.5654 53.2853 11.4284 53.4799 11.3545C53.6744 11.2797 53.8748 11.2855 54.0809 11.3713C54.2821 11.4704 54.4195 11.6184 54.4932 11.815C54.5669 12.0117 54.5594 12.2134 54.47 12.421C54.2912 12.7328 54.0536 12.8883 53.7589 12.8883C53.6513 12.8883 53.5436 12.8631 53.436 12.8135ZM55.3591 20.7709C55.2093 20.6196 55.1298 20.4339 55.1207 20.212L55.0603 12.0814C55.0603 11.8604 55.1365 11.673 55.2888 11.52C55.4502 11.362 55.6357 11.283 55.8459 11.283H58.9993C59.2186 11.283 59.4041 11.3595 59.5564 11.5133C59.7087 11.6671 59.7849 11.8537 59.7849 12.0756C59.7849 12.2924 59.7087 12.4781 59.5564 12.6345C59.4041 12.7899 59.2186 12.8681 58.9993 12.8681H56.6308L56.6912 20.1994C56.687 20.4254 56.6109 20.612 56.4627 20.7616C56.3153 20.9104 56.1316 20.9894 55.9122 20.9986H55.9055C55.6911 20.9978 55.509 20.9222 55.3591 20.7709Z" fill="white"/>
<path id="Vector_7" d="M58.8917 20.7541C58.6723 20.5196 58.6102 20.2464 58.7037 19.9346L61.5085 11.7638C61.665 11.4074 61.9109 11.2292 62.247 11.2292H62.2536C62.6162 11.2519 62.8621 11.4343 62.9921 11.7772L65.0121 17.9579C65.075 18.1747 65.0593 18.3764 64.9649 18.5639C64.8713 18.7513 64.719 18.8807 64.5087 18.953C64.2984 19.0211 64.1006 19.0076 63.9152 18.9126C63.7297 18.8177 63.5989 18.6647 63.5227 18.4521L62.228 14.4919L60.7179 18.8858L62.1468 18.3647C62.3571 18.2924 62.5574 18.3008 62.747 18.3882C62.9374 18.4765 63.0724 18.6244 63.1527 18.8311C63.2239 19.0438 63.2156 19.2455 63.1262 19.4371C63.0368 19.6287 62.8894 19.7657 62.6833 19.8464L59.7104 20.9365C59.621 20.9684 59.5316 20.9844 59.4422 20.9844C59.2402 20.9844 59.0572 20.9079 58.8917 20.7541Z" fill="white"/>
<path id="Vector_8" d="M64.1794 20.4566L64.1662 20.4297C64.1033 20.2129 64.119 20.0112 64.2133 19.8238C64.3077 19.6363 64.4592 19.5069 64.6695 19.4346C64.8839 19.3716 65.0843 19.3876 65.2697 19.4817C65.4551 19.5767 65.5835 19.7296 65.6555 19.9423L65.6687 19.9691C65.7317 20.1809 65.7143 20.381 65.6183 20.5684C65.5222 20.7558 65.3707 20.8878 65.1654 20.9642C65.0801 20.9869 64.9998 20.9979 64.9237 20.9979C64.5933 20.9979 64.345 20.8172 64.1794 20.4566Z" fill="white"/>
<path id="Vector_9" d="M70.6364 16.5905L70.6232 16.5636C70.5603 16.3467 70.576 16.145 70.6704 15.9576C70.7648 15.7702 70.9163 15.6408 71.1265 15.5685C71.3409 15.5054 71.5413 15.5214 71.7267 15.6155C71.9122 15.7105 72.0405 15.8635 72.1125 16.0761L72.1258 16.103C72.1887 16.3148 72.1713 16.5148 72.0753 16.7022C71.9793 16.8897 71.8277 17.0216 71.6224 17.0981C71.5372 17.1208 71.4569 17.1317 71.3807 17.1317C71.0504 17.1317 70.802 16.951 70.6364 16.5905Z" fill="white"/>
<path id="Vector_10" d="M67.6831 14.0918C68.0424 14.1472 68.2849 13.9623 68.3478 13.5824C68.4257 13.1126 68.5664 12.7151 68.7767 12.3688C69.3404 11.4393 70.415 11.0964 71.4507 11.5166C72.3522 11.8822 72.8042 12.8084 72.6022 13.8758C72.5327 14.2439 72.5426 14.2649 72.4375 14.5683C72.358 14.7986 72.2553 14.9557 72.2893 15.1137C72.3174 15.2457 72.4044 15.3592 72.5459 15.4499C72.6527 15.518 72.757 15.5516 72.858 15.5516C73.0501 15.5516 73.2306 15.4297 73.3904 15.1877C73.8233 14.5321 73.7894 14.1422 73.7811 13.3656C73.7794 12.6168 73.5841 11.9881 73.1826 11.4443C72.3779 10.3526 70.8588 9.90883 69.4886 10.3652C68.2791 10.7678 67.2476 12.1738 67.236 13.4354C67.2327 13.6883 67.2766 14.0287 67.6831 14.0918Z" fill="white"/>
<path id="Vector_11" d="M67.6831 14.0918C68.0424 14.1472 68.2849 13.9623 68.3478 13.5824C68.4257 13.1126 68.5664 12.7151 68.7767 12.3688C69.3404 11.4393 70.415 11.0964 71.4507 11.5166C72.3522 11.8822 72.8042 12.8084 72.6022 13.8758C72.5327 14.2439 72.5426 14.2649 72.4375 14.5683C72.358 14.7986 72.2553 14.9557 72.2893 15.1137C72.3174 15.2457 72.4044 15.3592 72.5459 15.4499C72.6527 15.518 72.757 15.5516 72.858 15.5516C73.0501 15.5516 73.2306 15.4297 73.3904 15.1877C73.8233 14.5321 73.7894 14.1422 73.7811 13.3656C73.7794 12.6168 73.5841 11.9881 73.1826 11.4443C72.3779 10.3526 70.8588 9.90883 69.4886 10.3652C68.2791 10.7678 67.2476 12.1738 67.236 13.4354C67.2327 13.6883 67.2766 14.0287 67.6831 14.0918Z" stroke="white" stroke-width="0.0477753" stroke-miterlimit="10"/>
<path id="Vector_12" d="M73.3224 20.1666C73.2297 20.1632 73.1353 20.1632 73.0434 20.1632H71.6244C70.7419 20.1632 69.8586 20.1632 68.9761 20.1624C68.5944 20.1616 68.3891 20.1439 68.3262 20.0481C68.2616 19.9498 68.327 19.7464 68.4885 19.3564C68.8453 18.4907 69.217 18.1873 69.9232 17.8058C70.2899 17.6083 70.4017 17.3007 70.2295 16.9636C70.0887 16.688 69.8263 16.6132 69.4711 16.7476C67.9346 17.3301 67.1341 18.8126 67.1101 20.5028C67.1059 20.7986 67.1631 20.997 67.2906 21.1264C67.4089 21.2466 67.5902 21.3054 67.8436 21.3054C67.851 21.3054 67.8585 21.3054 67.8651 21.3054C68.4992 21.297 69.1433 21.2987 69.7675 21.3004C70.0341 21.3012 70.2998 21.302 70.5664 21.302L70.6028 21.2978L71.3512 21.2987C71.9978 21.2995 72.6667 21.3004 73.324 21.297C73.7736 21.2945 74.0004 21.1045 73.9996 20.7314C73.9996 20.249 73.613 20.1784 73.3224 20.1666Z" fill="white"/>
<path id="Vector_13" d="M73.3224 20.1666C73.2297 20.1632 73.1353 20.1632 73.0434 20.1632H71.6244C70.7419 20.1632 69.8586 20.1632 68.9761 20.1624C68.5944 20.1616 68.3891 20.1439 68.3262 20.0481C68.2616 19.9498 68.327 19.7464 68.4885 19.3564C68.8453 18.4907 69.217 18.1873 69.9232 17.8058C70.2899 17.6083 70.4017 17.3007 70.2295 16.9636C70.0887 16.688 69.8263 16.6132 69.4711 16.7476C67.9346 17.3301 67.1341 18.8126 67.1101 20.5028C67.1059 20.7986 67.1631 20.997 67.2906 21.1264C67.4089 21.2466 67.5902 21.3054 67.8436 21.3054C67.851 21.3054 67.8585 21.3054 67.8651 21.3054C68.4992 21.297 69.1433 21.2987 69.7675 21.3004C70.0341 21.3012 70.2998 21.302 70.5664 21.302L70.6028 21.2978L71.3512 21.2987C71.9978 21.2995 72.6667 21.3004 73.324 21.297C73.7736 21.2945 74.0004 21.1045 73.9996 20.7314C73.9996 20.249 73.613 20.1784 73.3224 20.1666Z" stroke="white" stroke-width="0.0477753" stroke-miterlimit="10"/>
<g id="Group 4">
<path id="Vector_14" d="M25.6024 25.2337C24.6197 25.2337 23.8225 26.0422 23.8225 27.0407C23.8225 27.1979 23.8424 27.3508 23.8796 27.4962C23.8838 27.513 23.8888 27.5298 23.8929 27.5458L23.873 27.5618C22.2587 28.8729 20.3529 29.8142 18.3454 30.2907C16.1913 30.8017 13.9121 30.7757 11.7539 30.2134C8.16594 29.2797 5.15168 26.9827 3.26497 23.747C1.37827 20.5112 0.846794 16.7225 1.76655 13.08C2.56461 9.92072 4.43145 7.12454 7.02266 5.20663C9.53192 3.34923 12.6025 2.39112 15.6829 2.50542L15.7401 2.50794C16.005 3.08617 16.5704 3.49883 17.241 3.52825C18.2005 3.57111 19.0118 2.81638 19.054 1.8423C19.0962 0.868219 18.3528 0.0445777 17.3933 0.00171468C16.616 -0.0327438 15.9363 0.455558 15.6829 1.15986L15.6233 1.15818C12.2813 1.06152 8.96068 2.10704 6.24114 4.11992C3.4024 6.22105 1.35676 9.28534 0.482533 12.7463C-0.525807 16.7368 0.0578243 20.8869 2.12417 24.4319C4.19052 27.977 7.49371 30.4933 11.4244 31.5161C12.4452 31.7817 13.4908 31.938 14.5388 31.9851C15.9189 32.0464 17.3047 31.9187 18.6459 31.6002C20.8364 31.0799 22.916 30.0546 24.6785 28.6283L24.7083 28.6039C24.7199 28.6107 24.7323 28.6174 24.7439 28.6241C24.9981 28.7662 25.2903 28.8468 25.6008 28.8468C26.5843 28.8468 27.3807 28.0375 27.3807 27.0399C27.3823 26.0431 26.5851 25.2337 25.6024 25.2337ZM17.3511 1.00941C17.7617 1.0279 18.0804 1.3809 18.0622 1.7986C18.044 2.2163 17.6963 2.53988 17.2849 2.52139C16.8734 2.5029 16.5555 2.14991 16.5729 1.7322C16.5919 1.3145 16.9397 0.990925 17.3511 1.00941ZM25.6107 27.7542C25.1993 27.7358 24.8814 27.3828 24.8987 26.9651C24.917 26.5474 25.2646 26.2246 25.6761 26.2423C26.0875 26.2608 26.4055 26.6138 26.3881 27.0315C26.3699 27.4492 26.0222 27.7727 25.6107 27.7542Z" fill="white"/>
<path id="Vector_15" d="M21.3349 23.7545C20.4615 23.4091 19.478 23.847 19.1369 24.7337C19.0243 25.0261 18.9962 25.3304 19.04 25.6195L18.9829 25.6456C16.4033 26.8087 13.4197 26.7844 10.8525 25.5481C6.00779 23.2141 3.93647 17.3133 6.23545 12.3942C8.14534 8.3079 12.5562 6.2345 16.9166 6.94048C16.9464 6.94552 17.0366 6.95477 17.0366 6.95477C17.0374 6.97158 17.0383 6.98923 17.0399 7.00604C17.1086 7.89355 17.8396 8.59197 18.7321 8.59197C19.6692 8.59197 20.4292 7.82043 20.4292 6.86904C20.4292 5.91765 19.6692 5.14612 18.7321 5.14612C18.2436 5.14612 17.804 5.35539 17.4944 5.69073L17.3959 5.66804C15.0348 5.14024 12.5363 5.42179 10.3326 6.46983C8.01784 7.56998 6.13858 9.4694 5.04083 11.8176C2.42892 17.4058 4.78172 24.1101 10.2862 26.7625C11.7813 27.4828 13.4014 27.8417 15.0199 27.8417C16.6169 27.8417 18.213 27.4929 19.6874 26.7987L19.7454 26.7709C19.8538 26.8482 19.9739 26.9138 20.103 26.9651C20.9764 27.3105 21.9599 26.8726 22.301 25.9859C22.6396 25.0993 22.2083 24.1008 21.3349 23.7545ZM18.7312 6.1555C19.1195 6.1555 19.4349 6.47571 19.4349 6.86988C19.4349 7.26406 19.1195 7.58427 18.7312 7.58427C18.343 7.58427 18.0276 7.26406 18.0276 6.86988C18.0276 6.47571 18.343 6.1555 18.7312 6.1555ZM20.7181 26.0742C20.3298 26.0742 20.0144 25.754 20.0144 25.3598C20.0144 24.9656 20.3298 24.6454 20.7181 24.6454C21.1064 24.6454 21.4218 24.9656 21.4218 25.3598C21.4218 25.754 21.1064 26.0742 20.7181 26.0742Z" fill="white"/>
</g>
<path id="Vector_16" d="M61.1539 8.62635L61.1332 8.58517C61.0388 8.25908 61.0628 7.95483 61.2036 7.67328C61.3451 7.39173 61.5736 7.1959 61.8907 7.08749C62.2136 6.99252 62.5149 7.01605 62.7947 7.15892C63.0737 7.3018 63.2674 7.53292 63.3751 7.85146L63.3949 7.89264C63.4893 8.21201 63.4636 8.51289 63.3188 8.79444C63.1739 9.07599 62.9462 9.27518 62.6374 9.39032C62.5091 9.42394 62.3882 9.44159 62.274 9.44159C61.7764 9.44159 61.4031 9.17012 61.1539 8.62635Z" fill="white"/>
<path id="Vector_17" d="M44.7257 8.23636C44.7257 8.5843 44.4475 8.86669 44.1048 8.86669C43.762 8.86669 43.4839 8.5843 43.4839 8.23636C43.4839 7.88841 43.762 7.60602 44.1048 7.60602C44.4475 7.60602 44.7257 7.88841 44.7257 8.23636Z" fill="white"/>
<path id="Vector_18" d="M44.1048 8.86669C44.4477 8.86669 44.7257 8.58448 44.7257 8.23636C44.7257 7.88823 44.4477 7.60602 44.1048 7.60602C43.7619 7.60602 43.4839 7.88823 43.4839 8.23636C43.4839 8.58448 43.7619 8.86669 44.1048 8.86669Z" stroke="white" stroke-width="0.0119438" stroke-miterlimit="10"/>
<path id="Vector_19" d="M48.1612 8.23636C48.1612 8.5843 47.8831 8.86669 47.5403 8.86669C47.1976 8.86669 46.9194 8.5843 46.9194 8.23636C46.9194 7.88841 47.1976 7.60602 47.5403 7.60602C47.8831 7.60602 48.1612 7.88841 48.1612 8.23636Z" fill="white"/>
<path id="Vector_20" d="M51.5558 8.23636C51.5558 8.5843 51.2776 8.86669 50.9349 8.86669C50.5921 8.86669 50.314 8.5843 50.314 8.23636C50.314 7.88841 50.5921 7.60602 50.9349 7.60602C51.2776 7.60602 51.5558 7.88841 51.5558 8.23636Z" fill="white"/>
<path id="Vector_21" d="M54.9498 8.23636C54.9498 8.5843 54.6716 8.86669 54.3289 8.86669C53.9862 8.86669 53.708 8.5843 53.708 8.23636C53.708 7.88841 53.9862 7.60602 54.3289 7.60602C54.6716 7.60602 54.9498 7.88841 54.9498 8.23636Z" fill="white"/>
<path id="Vector_22" d="M70.5963 8.23636C70.5963 8.5843 70.3181 8.86669 69.9754 8.86669C69.6327 8.86669 69.3545 8.5843 69.3545 8.23636C69.3545 7.88841 69.6327 7.60602 69.9754 7.60602C70.3181 7.60602 70.5963 7.88841 70.5963 8.23636Z" fill="white"/>
<path id="Vector_23" d="M73.9913 8.23636C73.9913 8.5843 73.7131 8.86669 73.3704 8.86669C73.0277 8.86669 72.7495 8.5843 72.7495 8.23636C72.7495 7.88841 73.0277 7.60602 73.3704 7.60602C73.7131 7.60602 73.9913 7.88841 73.9913 8.23636Z" fill="white"/>
<path id="Vector_24" d="M58.9243 8.23645C58.9243 8.74744 58.5162 9.16094 58.0137 9.16094C57.5103 9.16094 57.103 8.74744 57.103 8.23645C57.103 7.72629 57.5103 7.31195 58.0137 7.31195C58.5162 7.31195 58.9243 7.72629 58.9243 8.23645Z" fill="white"/>
<path id="Vector_25" d="M67.2022 8.23645C67.2022 8.74744 66.794 9.16094 66.2915 9.16094C65.7882 9.16094 65.3809 8.74744 65.3809 8.23645C65.3809 7.72629 65.7882 7.31195 66.2915 7.31195C66.794 7.31195 67.2022 7.72629 67.2022 8.23645Z" fill="white"/>
</g>
</svg>
